<?xml version="1.0" standalone="no"?>
<!DOCTYPE svg PUBLIC "-//W3C//DTD SVG 20010904//EN"
 "http://www.w3.org/TR/2001/REC-SVG-20010904/DTD/svg10.dtd">
<svg version="1.0" xmlns="http://www.w3.org/2000/svg"
 width="700.000000pt" height="700.000000pt" viewBox="0 0 700.000000 700.000000"
 preserveAspectRatio="xMidYMid meet">
<metadata>
Created by potrace 1.11, written by Peter Selinger 2001-2013
</metadata>
<g transform="translate(0.000000,700.000000) scale(0.100000,-0.100000)"
fill="#000000" stroke="none">
<path d="M0 3500 l0 -3500 3500 0 3500 0 0 3500 0 3500 -3500 0 -3500 0 0
-3500z m6645 0 l0 -3145 -3135 -1 c-1724 0 -3140 1 -3145 3 -7 2 -10 1008 -9
3141 1 1725 2 3139 3 3142 0 3 1415 5 3144 5 l3142 0 0 -3145z"/>
<path d="M2015 5676 c-2 -6 -3 -1010 -2 -2231 l2 -2220 145 -1 c80 0 150 1
156 3 7 3 10 284 10 921 l-1 917 25 25 c14 14 59 54 99 90 74 65 107 94 211
186 31 27 86 76 124 109 38 33 85 75 105 93 33 31 37 32 49 15 7 -10 59 -81
115 -158 56 -77 105 -144 110 -150 4 -5 80 -109 167 -230 291 -401 810 -1115
1068 -1470 l255 -350 186 3 c102 2 187 5 189 6 2 3 -620 861 -813 1121 -28 39
-89 122 -135 185 -45 63 -106 147 -135 185 -29 39 -175 239 -325 445 -150 206
-315 432 -367 502 -51 70 -96 133 -98 140 -6 15 49 71 990 1023 774 783 835
845 835 849 0 2 -88 4 -195 4 l-196 0 -57 -58 c-78 -78 -697 -711 -817 -835
-772 -794 -1382 -1409 -1387 -1398 -2 4 -3 522 -3 1149 l1 1142 -154 0 c-106
0 -155 -4 -157 -12z"/>
</g>
</svg>
